Coordinates
version=1
nRows=28
nColumns=23
inDegrees=yes

Units are S.I. units (second, meters, Newtons, ...)
If the header above contains a line with 'inDegrees', this indicates whether rotational values are in degrees (yes) or radians (no).

endheader
time	pelvis_tilt	pelvis_list	pelvis_rotation	pelvis_tx	pelvis_ty	pelvis_tz	hip_flexion_r	hip_adduction_r	hip_rotation_r	knee_angle_r	knee_angle_r_beta	ankle_angle_r	subtalar_angle_r	mtp_angle_r	hip_flexion_l	hip_adduction_l	hip_rotation_l	knee_angle_l	knee_angle_l_beta	ankle_angle_l	subtalar_angle_l	mtp_angle_l
     15.00000000	    -12.17384764	     -4.45357661	     -0.33476283	      2.24550878	      0.95502793	      1.05371595	     21.98614535	      6.67926845	     -4.35246142	     43.29732532	      0.75568088	     26.33988741	     -3.41704224	      0.00000000	     37.75714354	     -6.70682476	      3.04910061	    116.11442889	      2.02657909	      7.34495488	      2.00455709	      0.00000000
     15.00666667	    -12.33298861	     -3.97334851	     -0.20836545	      2.24546632	      0.95811655	      1.05356630	     19.81495941	      6.11394419	     -4.41479935	     41.64036210	      0.72676142	     26.17494684	     -2.32464815	      0.00000000	     39.83628292	     -6.16128508	      2.43270998	    114.77094977	      2.00313096	      7.97486184	      1.88576085	      0.00000000
     15.01333333	    -12.72777867	     -3.46008153	     -0.15214023	      2.24559603	      0.96128570	      1.05357406	     17.86329245	      5.59104351	     -4.29955692	     39.83800242	      0.69530431	     25.49683776	     -1.62275851	      0.00000000	     42.00561976	     -5.65052441	      1.66945656	    113.11490854	      1.97422759	      8.59657978	      1.68221839	      0.00000000
     15.02000000	    -12.96382163	     -2.90803997	     -0.10409511	      2.24616665	      0.96506494	      1.05360340	     15.68348778	      4.99860855	     -4.27080760	     37.86919084	      0.66094207	     24.47098522	     -0.85000636	      0.00000000	     43.77909356	     -5.14718783	      0.78807401	    111.09978101	      1.93905698	      9.14061669	      1.37435714	      0.00000000
     15.02666667	    -12.90890062	     -2.30159963	     -0.00648874	      2.24720573	      0.96958804	      1.05356767	     13.10728186	      4.35897933	     -4.23286678	     35.67891874	      0.62271461	     23.16422997	     -0.07639523	      0.00000000	     45.00858614	     -4.58476162	     -0.16001499	    108.73727202	      1.89782342	      9.62302961	      0.96494175	      0.00000000
     15.03333333	    -12.99410753	     -1.65583930	      0.03516677	      2.24847118	      0.97413179	      1.05363402	     10.70058583	      3.67824515	     -4.19620324	     33.42586451	      0.58339139	     21.37364779	      0.63318729	      0.00000000	     46.19561690	     -4.05843370	     -1.20516092	    106.10640499	      1.85190612	     10.10684597	      0.61048075	      0.00000000
     15.04000000	    -13.16603625	     -0.98864349	      0.10679341	      2.25000065	      0.97873912	      1.05364305	      8.40204848	      2.96247731	     -4.23518083	     31.11388341	      0.54303971	     19.15759540	      1.32924559	      0.00000000	     47.29290456	     -3.48622219	     -2.24664600	    103.20846155	      1.80132747	     10.53075513	      0.25721440	      0.00000000
     15.04666667	    -13.05045961	     -0.28978547	      0.13836226	      2.25185924	      0.98387941	      1.05373240	      5.76511142	      2.26470873	     -4.10939703	     28.62942761	      0.49967777	     16.58383105	      1.75569217	      0.00000000	     47.86442380	     -2.94167734	     -3.34424793	    100.03440384	      1.74592971	     10.97677409	     -0.02805976	      0.00000000
     15.05333333	    -13.07798219	      0.40302516	      0.23695026	      2.25389602	      0.98879907	      1.05365605	      3.34168572	      1.52837270	     -4.18244610	     26.18491044	      0.45701290	     13.68671294	      2.22343595	      0.00000000	     48.43776076	     -2.32352899	     -4.36641909	     96.64178977	      1.68671743	     11.35562145	     -0.34439165	      0.00000000
     15.06000000	    -13.11390469	      1.09905354	      0.35974434	      2.25609754	      0.99365135	      1.05348773	      0.99676261	      0.78018294	     -4.34699101	     23.79334932	      0.41527229	     10.55460211	      2.72918496	      0.00000000	     48.85276515	     -1.65415229	     -5.33589457	     93.03016972	      1.62368277	     11.70692387	     -0.67210819	      0.00000000
     15.06666667	    -13.15964106	      1.77237878	      0.52500830	      2.25841025	      0.99838441	      1.05317801	     -1.25421587	      0.05349927	     -4.60774106	     21.49597363	      0.37517552	      7.23669929	      3.11806272	      0.00000000	     49.12447179	     -0.94181636	     -6.21924316	     89.20355632	      1.55689576	     12.02933162	     -0.95738489	      0.00000000
     15.07333333	    -13.16990982	      2.42705181	      0.66016092	      2.26079408	      1.00299632	      1.05286554	     -3.43495725	     -0.62939051	     -4.79166755	     19.33874716	      0.33752481	      3.77690263	      3.25928233	      0.00000000	     49.19761595	     -0.24096913	     -7.06239172	     85.17149841	      1.48652308	     12.34550426	     -1.20743321	      0.00000000
     15.08000000	    -13.36266107	      2.99558856	      0.90386173	      2.26314084	      1.00712615	      1.05233574	     -5.24914780	     -1.25635264	     -5.30716444	     17.50241581	      0.30547478	      0.36936550	      3.44691614	      0.00000000	     49.35641377	      0.52130638	     -7.70338342	     80.97015702	      1.41319584	     12.60031718	     -1.44817427	      0.00000000
     15.08666667	    -13.41235305	      3.52302545	      1.06601695	      2.26555077	      1.01123646	      1.05190199	     -7.08925197	     -1.78466528	     -5.54418331	     15.87477027	      0.27706701	     -2.95766041	      3.11996932	      0.00000000	     49.18891095	      1.20313585	     -8.32156788	     76.56195369	      1.33625817	     12.88859848	     -1.66393013	      0.00000000
     15.09333333	    -13.61231884	      3.93167567	      1.34372286	      2.26782638	      1.01480694	      1.05129632	     -8.53667443	     -2.24169324	     -6.31680967	     14.73327287	      0.25714412	     -5.98170415	      2.97469461	      0.00000000	     49.07553066	      1.91983084	     -8.69889164	     71.98602765	      1.25639320	     13.10260509	     -1.91956280	      0.00000000
     15.10000000	    -13.85069919	      4.22207703	      1.60732790	      2.26997051	      1.01797284	      1.05075238	     -9.69118626	     -2.58114181	     -7.20745294	     14.10702475	      0.24621403	     -8.65428790	      2.56813219	      0.00000000	     48.87926121	      2.53577291	     -8.96321632	     67.26309961	      1.17396255	     13.30102524	     -2.04060984	      0.00000000
     15.10666667	    -14.03989285	      4.42713280	      1.87540685	      2.27207902	      1.02084163	      1.05026625	    -10.72106764	     -2.81268195	     -8.15074732	     13.87366614	      0.24214115	    -10.90441117	      1.85976010	      0.00000000	     48.47854758	      3.08698924	     -9.13049069	     62.36533664	      1.08848046	     13.48527379	     -2.19939020	      0.00000000
     15.11333333	    -14.29999290	      4.49040263	      2.15470391	      2.27398916	      1.02314205	      1.04980995	    -11.39624691	     -2.93516664	     -9.31909463	     14.24964923	      0.24870330	    -12.67602237	      0.95792554	      0.00000000	     48.04505564	      3.52754658	     -9.18269229	     57.36160803	      1.00114892	     13.64684542	     -2.15195541	      0.00000000
     15.12000000	    -14.55247421	      4.46151797	      2.43980326	      2.27574785	      1.02498470	      1.04937099	    -11.84872541	     -2.99904141	    -10.65971209	     15.15569664	      0.26451681	    -13.92121468	     -0.12594661	      0.00000000	     47.47086192	      3.88887091	     -9.17598580	     52.23517220	      0.91167574	     13.77278016	     -1.96836723	      0.00000000
     15.12666667	    -14.93402449	      4.26334289	      2.76813748	      2.27732994	      1.02603342	      1.04889416	    -11.94280219	     -2.93979046	    -12.12388012	     16.59385136	      0.28961734	    -14.68522413	     -1.47152243	      0.00000000	     46.96582723	      4.08928590	     -9.15817711	     47.14256445	      0.82279297	     14.04743156	     -1.16722264	      0.00000000
     15.13333333	    -14.97316541	      4.16647183	      2.98900731	      2.27880341	      1.02710379	      1.04835995	    -12.19249245	     -3.07322369	    -13.60162107	     18.54375214	      0.32364953	    -14.86752092	     -2.68961843	      0.00000000	     45.90062669	      4.39278521	     -9.11984956	     41.82618185	      0.73000459	     13.88180502	     -0.95713795	      0.00000000
     15.14000000	    -15.12223816	      3.94341569	      3.21454624	      2.28014268	      1.02737122	      1.04774494	    -12.17013748	     -3.11418244	    -14.85353035	     20.87670130	      0.36436717	    -14.65496423	     -4.21315780	      0.00000000	     44.91827119	      4.53956506	     -9.18368901	     36.68422109	      0.64026044	     13.88674647	      0.00953661	      0.00000000
     15.14666667	    -15.22484593	      3.60634044	      3.42833196	      2.28133559	      1.02700484	      1.04695585	    -12.04077303	     -3.08497553	    -15.85947104	     23.57602553	      0.41147927	    -14.23230920	     -5.98548786	      0.00000000	     43.88808070	      4.59417610	     -9.23190807	     31.81273893	      0.55523704	     13.92090661	      1.33344522	      0.00000000
     15.15333333	    -15.20501560	      3.25886414	      3.62109097	      2.28245543	      1.02623231	      1.04597412	    -11.91652112	     -3.04769632	    -16.50501772	     26.55429601	      0.46345990	    -13.56400103	     -7.76533233	      0.00000000	     42.71698711	      4.67174680	     -9.21047675	     27.21900548	      0.47506126	     13.80371867	      2.60607760	      0.00000000
     15.16000000	    -15.05984695	      2.90757370	      3.77328667	      2.28341831	      1.02506799	      1.04493808	    -11.76483672	     -2.97146646	    -16.68138934	     29.81340869	      0.52034214	    -12.83938026	     -9.65360315	      0.00000000	     41.46379669	      4.74446057	     -9.07488357	     23.07486772	      0.40273242	     13.53397638	      3.77610450	      0.00000000
     15.16666667	    -14.84318973	      2.44789917	      3.99103051	      2.28418613	      1.02356274	      1.04372703	    -11.56918892	     -2.68762921	    -16.46379255	     33.20471384	      0.57953158	    -12.26544113	    -11.68249210	      0.00000000	     40.19015306	      4.85131864	     -8.28007426	     19.39542575	      0.33851404	     12.98285821	      3.95568676	      0.00000000
     15.17333333	    -14.66816555	      1.97440676	      4.16426893	      2.28462488	      1.02140207	      1.04266190	    -11.07445102	     -2.36698527	    -15.91507452	     37.00707149	      0.64589524	    -11.72062375	    -13.59963511	      0.00000000	     39.30580843	      4.72584664	     -8.07572572	     16.86331588	      0.29432038	     12.58454166	      4.94981462	      0.00000000
     15.18000000	    -14.47495528	      1.51061278	      4.40209489	      2.28470818	      1.01901182	      1.04158907	    -10.42048291	     -1.90055236	    -15.01217318	     40.98414203	      0.71530822	    -11.50745391	    -15.72930906	      0.00000000	     38.49861612	      4.71870278	     -7.13429517	     14.93003712	      0.26057831	     11.75070994	      4.72599525	      0.00000000
